<svg xmlns="http://www.w3.org/2000/svg" xmlns:xlink="http://www.w3.org/1999/xlink" width="20" height="24" viewBox="0 0 20 24">
<path  fill="none" stroke-width="2" stroke-linecap="butt" stroke-linejoin="miter" stroke="rgb(0.4%, 51%, 89.8%)" stroke-opacity="1" stroke-miterlimit="10" d="M 10.5 11.5 C 10.5 14.167969 6.5 14.167969 6.5 11.5 C 6.5 8.832031 10.5 8.832031 10.5 11.5 "/>"
<path fill="rgb(0.4%, 51%, 89.8%)" fill-opacity="1" transform="translate(9,17.200195)" d="M 1.484375 3.796875 C 3.296875 3.0625 4.40625 1.5625 4.40625 -0.375 C 4.40625 -1.703125 3.8125 -2.515625 2.859375 -2.515625 C 2.125 -2.515625 1.5 -2.046875 1.5 -1.234375 C 1.5 -0.421875 2.125 0.046875 2.8125 0.046875 C 3.1875 0.046875 3.5 -0.0625 3.734375 -0.359375 L 2.859375 -1.6875 L 3.0625 -0.046875 C 3.0625 1.1875 2.296875 2.1875 1.0625 2.734375 Z M 1.484375 3.796875 "/>"
</svg>