<svg xmlns="http://www.w3.org/2000/svg" xmlns:xlink="http://www.w3.org/1999/xlink" width="20" height="24" viewBox="0 0 20 24">
<path fill="rgb(0.4%, 51%, 89.8%)" fill-opacity="1" transform="translate(0,19.700195)" d="M 0.984375 -5.859375 L 0.984375 -3.640625 L 19.015625 -3.640625 L 19.015625 -5.859375 Z M 2.90625 -10.484375 L 2.90625 -4.90625 L 5.21875 -4.90625 L 5.21875 -8.40625 L 14.796875 -8.40625 L 14.796875 -4.90625 L 17.21875 -4.90625 L 17.21875 -10.484375 Z M 8.65625 -12.484375 L 8.65625 -6.578125 C 8.65625 -3.921875 7.578125 -1.515625 0.546875 -0.203125 C 1.078125 0.34375 1.765625 1.296875 2.046875 1.84375 C 9.515625 0.1875 11.1875 -2.984375 11.1875 -6.5625 L 11.1875 -12.484375 Z M 11.15625 -5 L 9.046875 -4.5 C 10.703125 -0.875 13.40625 1.078125 18.046875 1.84375 C 18.359375 1.15625 19.015625 0.15625 19.546875 -0.375 C 15.234375 -0.84375 12.453125 -2.296875 11.15625 -5 Z M 1.1875 -15.4375 L 1.1875 -13.296875 L 18.78125 -13.296875 L 18.78125 -15.4375 Z M 5.09375 -17 L 5.09375 -11.515625 L 7.453125 -11.515625 L 7.453125 -17 Z M 12.4375 -17 L 12.4375 -11.515625 L 14.8125 -11.515625 L 14.8125 -17 Z M 12.4375 -17 "/>"
</svg>