<svg xmlns="http://www.w3.org/2000/svg" xmlns:xlink="http://www.w3.org/1999/xlink" width="20" height="24" viewBox="0 0 20 24">
<path  fill-rule="nonzero" fill="rgb(0.4%, 51%, 89.8%)" fill-opacity="1" d="M 10.5 11.5 C 10.5 14.167969 6.5 14.167969 6.5 11.5 C 6.5 8.832031 10.5 8.832031 10.5 11.5 "/>"
<path fill="rgb(0.4%, 51%, 89.8%)" fill-opacity="1" transform="translate(9,16.106445)" d="M 1.28125 3.296875 C 2.859375 2.65625 3.8125 1.359375 3.8125 -0.328125 C 3.8125 -1.46875 3.3125 -2.1875 2.484375 -2.1875 C 1.84375 -2.1875 1.296875 -1.765625 1.296875 -1.078125 C 1.296875 -0.359375 1.84375 0.03125 2.4375 0.03125 C 2.75 0.03125 3.03125 -0.046875 3.234375 -0.3125 L 2.484375 -1.453125 L 2.65625 -0.03125 C 2.65625 1.015625 2 1.890625 0.921875 2.375 Z M 1.28125 3.296875 "/>"
</svg>