<svg xmlns="http://www.w3.org/2000/svg" xmlns:xlink="http://www.w3.org/1999/xlink" width="20" height="24" viewBox="0 0 20 24">
<path fill="rgb(0.4%, 51%, 89.8%)" fill-opacity="1" transform="translate(0,19.700195)" d="M 12.90625 -4.921875 C 14.40625 -4.046875 16.203125 -2.6875 17.046875 -1.734375 L 18.71875 -2.984375 C 17.796875 -3.9375 15.921875 -5.21875 14.484375 -6.046875 Z M 12.484375 -0.921875 C 14.0625 -0.28125 16.15625 0.734375 17.15625 1.40625 L 19.015625 0.125 C 17.859375 -0.578125 15.71875 -1.515625 14.21875 -2.078125 Z M 5.453125 -2.015625 C 4.375 -1.265625 2.515625 -0.546875 0.8125 -0.09375 C 1.3125 0.28125 2.140625 1.078125 2.515625 1.5 C 4.21875 0.90625 6.265625 -0.125 7.578125 -1.15625 Z M 12.421875 -17 C 11.984375 -15.296875 11.09375 -13.765625 9.90625 -12.78125 C 10.34375 -12.4375 11.078125 -11.71875 11.375 -11.34375 C 12.765625 -12.546875 13.84375 -14.484375 14.421875 -16.59375 Z M 16.046875 -14.734375 C 15.296875 -11.875 13.28125 -10.09375 10.34375 -9.125 C 10.71875 -8.765625 11.3125 -7.953125 11.546875 -7.546875 C 14.734375 -8.8125 17.015625 -10.953125 18.015625 -14.4375 Z M 12.453125 -15.65625 L 11.59375 -13.984375 L 19.046875 -13.984375 L 19.046875 -15.65625 Z M 3.125 -17.078125 C 2.59375 -15.84375 1.59375 -14.6875 0.421875 -13.90625 C 0.875 -13.6875 1.703125 -13.1875 2.078125 -12.875 C 3.21875 -13.765625 4.359375 -15.15625 5 -16.640625 Z M 3.421875 -16.140625 L 2.703125 -14.703125 L 10.359375 -14.703125 L 10.359375 -16.140625 Z M 13.1875 -14.1875 L 11.5 -13.71875 C 12.765625 -10.59375 15 -8.34375 18.265625 -7.296875 C 18.546875 -7.84375 19.125 -8.640625 19.578125 -9.046875 C 16.5 -9.8125 14.265625 -11.703125 13.1875 -14.1875 Z M 2.515625 -14.09375 C 2.359375 -12.09375 2.0625 -9.484375 1.78125 -7.8125 L 3.578125 -7.8125 C 3.84375 -9.421875 4.140625 -12.046875 4.3125 -14.09375 Z M 3.015625 -14.09375 L 3.015625 -12.859375 L 8.578125 -12.859375 L 8.578125 -14.09375 Z M 2.59375 -9.046875 L 2.59375 -7.8125 L 10.21875 -7.8125 L 10.21875 -9.046875 Z M 4.765625 -12.28125 C 5.34375 -12.0625 6.0625 -11.640625 6.40625 -11.3125 L 7.046875 -12.09375 C 6.6875 -12.421875 5.953125 -12.796875 5.359375 -13 Z M 4.546875 -10.015625 C 5.1875 -9.734375 5.9375 -9.28125 6.296875 -8.921875 L 6.953125 -9.6875 C 6.5625 -10.046875 5.796875 -10.484375 5.15625 -10.71875 Z M 0.71875 -11.65625 L 0.71875 -10.3125 L 3.1875 -10.3125 L 3.1875 -10.453125 L 8.359375 -10.453125 L 8.359375 -10.3125 L 10.84375 -10.3125 L 10.84375 -11.65625 L 8.359375 -11.65625 L 8.359375 -11.515625 L 3.1875 -11.515625 L 3.1875 -11.65625 Z M 7.859375 -14.09375 C 7.765625 -12.265625 7.515625 -9.859375 7.28125 -8.34375 L 9.125 -8.34375 C 9.3125 -9.796875 9.546875 -12.203125 9.65625 -14.09375 Z M 2.6875 -1.703125 C 2.6875 -2.046875 4.0625 -2.421875 4.0625 -2.421875 L 4.0625 -2.484375 C 7.484375 -3.359375 11 -4.5625 14.203125 -6.21875 L 12.84375 -7.703125 C 9.84375 -5.953125 6.015625 -4.578125 4.765625 -4.21875 C 3.640625 -3.84375 2.90625 -3.640625 2.140625 -3.5625 C 2.34375 -3.046875 2.59375 -2.078125 2.6875 -1.703125 Z M 2.6875 -1.703125 C 3.5625 -2.046875 4.859375 -2.09375 16.515625 -2.859375 C 16.421875 -3.234375 16.296875 -3.953125 16.265625 -4.453125 L 3.921875 -3.796875 L 2.640625 -3.140625 Z M 4 -4.703125 C 4 -5.046875 5.125 -5.5 5.125 -5.5 L 5.125 -5.5625 C 6.6875 -6 8.34375 -6.65625 9.71875 -7.375 L 8.3125 -8.59375 C 7.0625 -7.703125 5.3125 -7 4.78125 -6.78125 C 4.265625 -6.59375 3.859375 -6.484375 3.453125 -6.421875 C 3.640625 -5.9375 3.921875 -5.078125 4 -4.703125 Z M 4 -4.703125 C 4.5 -4.875 5.296875 -5 11.203125 -5.359375 C 11.234375 -5.703125 11.34375 -6.34375 11.484375 -6.765625 L 4.90625 -6.4375 L 3.953125 -5.921875 Z M 9.1875 -3.703125 L 9.1875 -0.484375 C 9.1875 -0.265625 9.09375 -0.203125 8.796875 -0.1875 C 8.515625 -0.15625 7.453125 -0.15625 6.578125 -0.203125 C 6.90625 0.34375 7.265625 1.15625 7.40625 1.78125 C 8.734375 1.78125 9.78125 1.765625 10.578125 1.484375 C 11.375 1.15625 11.59375 0.65625 11.59375 -0.40625 L 11.59375 -3.703125 Z M 9.1875 -3.703125 "/>"
</svg>