<?xml version="1.0" encoding="UTF-8"?>
<svg xmlns="http://www.w3.org/2000/svg" xmlns:xlink="http://www.w3.org/1999/xlink" width="20" height="24" viewBox="0 0 20 24">
<path fill="rgb(0.4%, 51%, 89.8%)" fill-opacity="1" transform="translate(0,19.700195)" d="M 3.796875 -15.484375 L 3.796875 -13.515625 L 9.984375 -13.515625 L 9.984375 -15.484375 Z M 11.546875 -15.453125 L 11.546875 -13.515625 L 19.015625 -13.515625 L 19.015625 -15.453125 Z M 3.765625 -17.125 C 3.09375 -15.3125 1.921875 -13.546875 0.59375 -12.40625 C 1.15625 -12.125 2.125 -11.5 2.5625 -11.125 C 3.84375 -12.40625 5.1875 -14.453125 6 -16.515625 Z M 11.90625 -17.0625 C 11.4375 -15.40625 10.515625 -13.71875 9.421875 -12.65625 C 9.953125 -12.375 10.921875 -11.765625 11.359375 -11.375 C 12.484375 -12.59375 13.5625 -14.5625 14.15625 -16.546875 Z M 4.90625 -13.953125 C 5.4375 -13.078125 6.046875 -11.875 6.265625 -11.125 L 8.3125 -11.984375 C 8.0625 -12.734375 7.40625 -13.875 6.8125 -14.71875 Z M 13.453125 -14.046875 C 14.09375 -13.140625 14.859375 -11.90625 15.140625 -11.09375 L 17.203125 -12.0625 C 16.859375 -12.859375 16.0625 -14.046875 15.40625 -14.90625 Z M 7.28125 -4.953125 L 7.28125 -3.34375 L 12.734375 -3.34375 L 12.734375 -4.953125 Z M 1.765625 -8.921875 L 1.765625 1.765625 L 4.09375 1.765625 L 4.09375 -8.921875 Z M 7.09375 -11.015625 L 7.09375 -8.90625 L 17.40625 -8.90625 L 17.40625 -11.015625 Z M 2.796875 -10.578125 C 3.59375 -9.8125 4.515625 -8.765625 4.90625 -8.046875 L 6.78125 -9.359375 C 6.34375 -10.0625 5.359375 -11.078125 4.546875 -11.765625 Z M 15.953125 -11.015625 L 15.953125 -0.765625 C 15.953125 -0.484375 15.875 -0.40625 15.5625 -0.40625 C 15.265625 -0.375 14.15625 -0.375 13.28125 -0.4375 C 13.5625 0.125 13.875 1 13.984375 1.59375 C 15.484375 1.625 16.578125 1.578125 17.3125 1.28125 C 18.09375 0.9375 18.3125 0.375 18.3125 -0.765625 L 18.3125 -11.015625 Z M 8.359375 -6 L 11.765625 -6 L 11.765625 -2.265625 L 8.359375 -2.265625 Z M 6.34375 -7.734375 L 6.34375 -0.5 L 13.875 -0.5 L 13.875 -7.734375 Z M 6.34375 -7.734375 "/>"
</svg>