<?xml version="1.0" encoding="UTF-8"?>
<svg xmlns="http://www.w3.org/2000/svg" xmlns:xlink="http://www.w3.org/1999/xlink" width="256" height="256" viewBox="0 0 256 256">
<path fill="rgb(100%, 0%, 0%)" fill-opacity="1" transform="translate(-21,233.333984)" d="M 114.328125 -211.171875 L 119 -211.171875 L 144.671875 -201.84375 C 161.785156 -191.726562 170.34375 -180.0625 170.34375 -166.84375 C 170.34375 -152.0625 169.175781 -141.171875 166.84375 -134.171875 L 169.171875 -116.671875 L 168 -112 L 175 -71.171875 L 198.34375 -17.5 L 198.34375 -16.328125 C 198.34375 -10.890625 195.617188 -8.171875 190.171875 -8.171875 L 187.84375 -8.171875 C 171.507812 -25.273438 160.226562 -51.328125 154 -86.328125 L 150.5 -120.171875 L 148.171875 -120.171875 L 128.328125 -109.671875 L 106.171875 -99.171875 L 102.671875 -99.171875 C 100.335938 -99.171875 98.78125 -102.28125 98 -108.5 C 98 -113.945312 103.054688 -117.835938 113.171875 -120.171875 C 136.503906 -134.171875 148.171875 -144.671875 148.171875 -151.671875 L 151.671875 -168 C 151.671875 -174.226562 145.054688 -180.453125 131.828125 -186.671875 C 114.722656 -189.785156 106.171875 -194.84375 106.171875 -201.84375 C 107.722656 -205.726562 110.441406 -208.835938 114.328125 -211.171875 Z M 179.671875 -206.5 C 185.890625 -204.945312 193.664062 -196.78125 203 -182 L 206.5 -168 L 205.34375 -166.84375 L 206.5 -158.671875 L 206.5 -143.5 L 203 -131.828125 L 203 -122.5 C 207.664062 -86.71875 215.054688 -57.550781 225.171875 -35 L 226.34375 -28 C 224.78125 -21 222.832031 -17.5 220.5 -17.5 L 219.34375 -17.5 C 212.34375 -17.5 203.007812 -41.222656 191.34375 -88.671875 L 186.671875 -130.671875 L 190.171875 -151.671875 L 186.671875 -165.671875 L 187.84375 -170.34375 C 187.84375 -174.226562 182.785156 -183.945312 172.671875 -199.5 L 172.671875 -201.84375 C 172.671875 -203.394531 175.003906 -204.945312 179.671875 -206.5 Z M 117.828125 -168 C 123.273438 -165.664062 126 -163.722656 126 -162.171875 C 126 -152.835938 114.722656 -140.390625 92.171875 -124.828125 L 87.5 -123.671875 L 85.171875 -123.671875 L 81.671875 -127.171875 L 81.671875 -130.671875 C 81.671875 -138.441406 92.945312 -150.882812 115.5 -168 Z M 129.5 -91 C 132.613281 -91 135.722656 -82.832031 138.828125 -66.5 C 143.492188 -49.382812 151.664062 -29.941406 163.34375 -8.171875 C 161.007812 -1.171875 158.285156 2.328125 155.171875 2.328125 C 148.171875 2.328125 138.054688 -14.390625 124.828125 -47.828125 L 121.328125 -63 L 117.828125 -63 C 115.492188 -63 111.21875 -60.664062 105 -56 L 99.171875 -56 L 94.5 -60.671875 L 94.5 -63 C 94.5 -70.78125 105.390625 -80.113281 127.171875 -91 Z M 129.5 -91 "/>"
</svg>